<?xml version="1.0" standalone="no"?>
<!DOCTYPE svg PUBLIC "-//W3C//DTD SVG 20010904//EN"
 "http://www.w3.org/TR/2001/REC-SVG-20010904/DTD/svg10.dtd">
<svg version="1.0" xmlns="http://www.w3.org/2000/svg"
 width="512.000000pt" height="512.000000pt" viewBox="0 0 512.000000 512.000000"
 preserveAspectRatio="xMidYMid meet">
<metadata>
Created by potrace 1.14, written by Peter Selinger 2001-2017
</metadata>
<g transform="translate(0.000000,512.000000) scale(0.100000,-0.100000)"
fill="#000000" stroke="none">
<path d="M2388 5104 c-435 -79 -766 -444 -803 -887 -2 -18 -3 -107 -4 -199
l-1 -168 -334 0 c-355 0 -379 -3 -429 -49 -52 -47 -58 -67 -72 -226 -3 -38 -8
-86 -10 -105 -3 -19 -7 -71 -10 -115 -4 -44 -8 -96 -10 -115 -2 -19 -9 -91
-15 -160 -6 -69 -13 -145 -15 -170 -2 -25 -7 -74 -10 -110 -7 -93 -15 -179
-20 -220 -2 -19 -7 -69 -10 -110 -3 -41 -8 -95 -10 -120 -2 -25 -7 -76 -10
-115 -3 -38 -8 -86 -10 -105 -2 -19 -7 -69 -10 -110 -3 -41 -8 -97 -11 -125
-12 -123 -20 -216 -29 -325 -3 -36 -7 -87 -10 -115 -7 -69 -12 -127 -20 -220
-4 -44 -8 -97 -10 -117 -2 -20 -7 -72 -10 -115 -4 -43 -8 -89 -10 -103 -2 -14
-7 -59 -10 -100 -3 -41 -7 -95 -10 -120 -2 -25 -7 -70 -9 -100 -3 -30 -8 -86
-11 -125 -3 -38 -8 -90 -11 -115 -13 -132 -13 -180 1 -220 18 -50 64 -94 115
-109 27 -8 597 -11 1997 -11 2150 0 1997 -4 2060 60 38 38 56 97 49 158 -3 26
-8 76 -11 112 -3 36 -7 90 -10 120 -3 30 -7 84 -10 120 -3 36 -8 85 -10 110
-11 108 -35 381 -40 445 -3 39 -7 90 -10 115 -12 117 -15 150 -20 220 -4 41
-8 86 -10 100 -2 14 -6 64 -10 112 -3 48 -8 98 -10 110 -2 13 -6 63 -10 112
-4 50 -8 97 -10 105 -1 9 -6 59 -9 111 -7 95 -10 127 -21 230 -3 30 -7 82 -10
115 -3 33 -7 80 -10 105 -4 40 -10 114 -20 230 -2 31 -10 110 -20 220 -2 19
-6 69 -10 110 -3 41 -8 93 -10 115 -2 22 -7 72 -10 110 -3 39 -8 90 -10 115
-3 25 -7 74 -10 110 -15 171 -22 190 -88 244 l-39 31 -354 3 -354 3 -1 167
c-1 92 -2 178 -3 192 -24 250 -115 449 -286 621 -72 74 -196 161 -280 198 -30
13 -64 28 -75 32 -109 48 -363 70 -507 43z m327 -374 c213 -55 389 -234 439
-450 11 -46 16 -119 16 -247 l0 -183 -610 0 -610 0 0 178 c0 116 5 201 15 247
45 216 231 406 450 459 88 21 208 20 300 -4z m-1140 -1251 c2 -3 5 -85 5 -183
2 -195 7 -218 60 -273 83 -85 230 -59 284 49 23 45 24 60 26 225 0 97 2 179 4
182 3 5 1141 6 1203 2 8 -1 12 -54 15 -188 3 -179 4 -190 28 -232 62 -108 225
-117 300 -17 33 46 38 76 40 252 0 98 3 180 6 183 6 6 464 7 465 1 0 -3 2 -13
4 -22 2 -9 6 -54 10 -100 3 -46 8 -99 10 -118 2 -19 7 -64 10 -100 11 -126 16
-185 20 -220 2 -19 7 -73 10 -120 3 -47 8 -96 10 -110 2 -14 7 -63 10 -110 3
-47 8 -102 11 -124 2 -21 6 -66 9 -100 3 -33 8 -88 11 -121 3 -33 7 -82 9
-110 3 -27 7 -75 11 -106 3 -31 7 -79 9 -105 7 -89 24 -282 30 -334 2 -19 7
-71 10 -115 3 -44 8 -91 10 -105 2 -14 6 -65 10 -115 3 -49 8 -108 10 -130 2
-22 7 -67 10 -100 3 -33 8 -78 10 -100 2 -22 7 -69 9 -105 6 -68 16 -181 21
-240 2 -19 7 -72 10 -117 l7 -83 -54 0 c-29 -1 -807 -1 -1728 -1 l-1675 0 1
53 c0 57 14 252 19 280 2 9 6 54 10 100 3 45 8 99 10 118 2 19 7 67 10 105 3
39 8 90 10 115 5 45 10 101 20 220 3 36 8 81 10 100 2 19 7 73 10 120 3 47 8
101 10 120 5 38 12 117 20 220 3 36 7 81 10 100 2 19 7 73 11 120 4 47 8 99
10 115 1 17 5 66 9 110 3 44 8 96 10 115 2 19 6 64 10 100 9 109 16 183 20
230 2 25 7 74 10 110 3 36 7 81 10 100 3 30 13 141 20 230 8 100 17 207 18
215 1 6 10 12 20 15 23 6 445 5 452 -1z"/>
</g>
</svg>
